<?xml version="1.0" encoding="utf8"?>
<!-- https://www.svgrepo.com/svg/14756/person-silhouette  -->
<!DOCTYPE svg PUBLIC "-//W3C//DTD SVG 1.1//EN" "http://www.w3.org/Graphics/SVG/1.1/DTD/svg11.dtd">
<svg version="1.1" xmlns="http://www.w3.org/2000/svg" xmlns:xlink="http://www.w3.org/1999/xlink" x="0px" y="0px"
	 width="640px" height="220px" viewBox="0 0 640 220" xml:space="preserve">

  <style type="text/css">
    text {
      fill: black;
      stroke: none;
      font-family: "Arial Narrow", Arial, Helvetica, sans-serif;
      font-family: Frutiger, Myriad, Arial, Helvetica, sans-serif;
      text-anchor: middle;
      font-weight: normal;
    }

    #endArrow {
      fill: rgb(49, 54, 149);
      stroke: none;
      stroke-width: 1px;
      stroke-linejoin: round;
    }

    #redArrow {
      fill: rgb(255,0,0);
      stroke: none;
      stroke-width: 1px;
      stroke-linejoin: round;
    }

    .connector text {
      font-size: 18px;
    }

    .connector text.left {
      text-anchor: start;
    }

    .connector path {
      fill: none;
      stroke: rgb(49, 54, 149);
      stroke-width: 3px;
      marker-end: url(#endArrow);
    }

    .red path {
      stroke: red;
      marker-end: url(#redArrow);
    }

    .switcher {
      text-decoration: underline;
      cursor: pointer;
      text-anchor:start;
    }
  
  </style>



<defs>
  <g id="person">
  	<path d="M52.65,125.2h19.9c3.3,0,6-2.7,6-6V86.301h3.399c3.301,0,6-2.701,6-6V43.2c0-3.3-2.699-6-6-6H43.25c-3.3,0-6,2.7-6,6
		v37.101c0,3.299,2.7,6,6,6h3.4V119.2C46.65,122.5,49.25,125.2,52.65,125.2z"/>
  	<circle cx="62.55" cy="15.7" r="15.7"/>
  </g>

  <marker id="endArrow" viewBox="-30 -15 40 60" markerUnits="strokeWidth"
    refX="-4" refY="0" markerWidth="10" markerHeight="20" orient="auto" class="process">
    <path d="M-12,0 L-19,-9.5 L0,0 L-19,9.5 Z"/>
  </marker>

  <marker id="redArrow" viewBox="-30 -15 40 60" markerUnits="strokeWidth"
    refX="-4" refY="0" markerWidth="10" markerHeight="20" orient="auto" class="process">
    <path d="M-12,0 L-19,-9.5 L0,0 L-19,9.5 Z"/>
  </marker>

  <g class="header" id="headerEllipse">
    <ellipse cx="280" cy="35" rx="50" ry="20" fill="cyan" stroke="black" stroke-width="1" />
  </g>

  <rect x="0" y="0" width="100" height="50" stroke="black" stroke-width="1" id="firstRect" />  



</defs>


<g id="update">
  <use xlink:href="#headerEllipse" transform="translate(30, 0)" />
  <text x="310" y="40">Deactivate</text>

  <g transform="translate(10, 60)">
    <use xlink:href="#person" fill="#0c0"/>
    <text x="63" y="140">Controller</text>
  </g>

  <g class="connector">
    <path d="M110,110 250,110"/>
    <text x="120" y="100" class="left">Deactivate DID</text>
  </g>

  <use xlink:href="#firstRect" fill="#fcc" transform="translate(260,90)"/>
  <text x="310" y="120">Registry</text>

  <g transform="translate(500, 60)">
    <use xlink:href="#person" fill="#0c0"/>
    <text x="63" y="140">Requesting party</text>
  </g>

  <g class="connector">
    <path d="M510,110 370,110"/>
    <text x="390" y="100" class="left">Resolve DID</text>
  </g>

  <g class="connector red">
    <path d="M370,150 510,150"/>
    <text x="390" y="140" class="left">'Inactive'</text>
  </g>


</g>


</svg>
